<?xml version="1.0" encoding="UTF-8"?>
<svg id="Layer_1" data-name="Layer 1" xmlns="http://www.w3.org/2000/svg" viewBox="0 0 163 152">
  <defs>
    <style>
      .cls-1 {
        fill: #666;
      }
    </style>
  </defs>
  <path class="cls-1" d="M81.49,32.41c-9.71,0-17.61,7.9-17.61,17.61s7.44,17.26,17.17,17.57c.28-.02,.58-.03,.83,0,.06,0,.12,0,.18,0,.02,0,.04,0,.06,0,9.48-.32,16.94-8.04,16.98-17.57,0-9.71-7.9-17.61-17.61-17.61Z"/>
  <path class="cls-1" d="M107.59,89.43c0,4.56-2.6,8.83-7.27,11.94-5.19,3.49-12.02,5.23-18.84,5.23s-13.65-1.74-18.84-5.23c-4.67-3.08-7.23-7.35-7.23-11.91-.04-4.56,2.56-8.83,7.23-11.98h.04c10.42-6.9,27.3-6.9,37.65,0,4.67,3.12,7.27,7.35,7.27,11.95Z"/>
</svg>