<?xml version="1.0" encoding="UTF-8"?>
<svg id="Layer_1" data-name="Layer 1" xmlns="http://www.w3.org/2000/svg" viewBox="0 0 256 251">
  <defs>
    <style>
      .cls-1 {
        fill: #18e98d;
      }
    </style>
  </defs>
  <g>
    <rect class="cls-1" x="79.78" y="18.99" width="31.98" height="31.98"/>
    <rect class="cls-1" x="48.81" y="50.97" width="30.97" height="30.97"/>
    <rect class="cls-1" x="29.51" y="31.67" width="19.3" height="19.3"/>
    <rect class="cls-1" x="29.51" y="81.94" width="19.3" height="19.3"/>
    <rect class="cls-1" x="48.81" y="18.79" width="12.88" height="12.88"/>
    <rect class="cls-1" x="18.56" y="20.73" width="10.95" height="10.95"/>
    <rect class="cls-1" x="18.56" y="71" width="10.95" height="10.95"/>
    <path class="cls-1" d="M216.02,205.37l-3.86-14.13c13.94-18.07,22.29-40.79,22.29-65.51,0-58.8-47.03-106.47-105.05-106.47-3.48,0-6.92,.18-10.31,.52v63.85c3.3-.83,6.75-1.28,10.31-1.28,23.64,0,42.8,19.42,42.8,43.38,0,7.94-2.11,15.37-5.78,21.77l6.26,22.89-19.28-8.74c-6.85,4.71-15.11,7.46-24.01,7.46-23.64,0-42.8-19.42-42.8-43.38,0-7.93,2.11-15.35,5.77-21.74H26.54c-1.44,7.02-2.2,14.29-2.2,21.74,0,58.8,47.03,106.47,105.05,106.47,20.91,0,40.37-6.21,56.74-16.88l11.89,5.39,23.92,10.85,1.18,.64-.04-.13,.28,.13-7.34-26.84Z"/>
  </g>
  <path class="cls-1" d="M113.04,144.11v-36.75h19.82c2.74,0,4.98,.53,6.7,1.6,1.73,1.07,3.01,2.48,3.85,4.25,.84,1.76,1.26,3.68,1.26,5.74,0,2.21-.44,4.2-1.31,5.98-.87,1.78-2.15,3.26-3.82,4.43l6.2,14.74h-12.23l-4.59-12.34h-4.75v12.34h-11.11Zm11.11-20.35h6.3c.89,0,1.6-.4,2.14-1.2s.8-1.79,.8-2.96c0-.75-.12-1.42-.35-2-.23-.59-.57-1.06-1.01-1.42-.45-.36-.97-.53-1.58-.53h-6.3v8.12Z"/>
</svg>