<?xml version="1.0" encoding="UTF-8"?>
<svg id="Layer_1" data-name="Layer 1" xmlns="http://www.w3.org/2000/svg" viewBox="0 0 163 152">
  <defs>
    <style>
      .cls-1 {
        fill: #666;
      }
    </style>
  </defs>
  <path class="cls-1" d="M104.55,46.88c-12.73-12.73-33.38-12.73-46.11,0-12.73,12.74-12.73,33.38,0,46.11,12.74,12.73,33.38,12.73,46.11,0,6.11-6.12,9.55-14.41,9.55-23.06,0-8.65-3.44-16.94-9.55-23.05Zm-6.28,35.87s0,0,0,0h0s-1.65,1.63-1.65,1.63c-2.14,2.16-5.25,3.05-8.21,2.35-2.98-.8-5.81-2.07-8.39-3.76-2.4-1.53-4.61-3.32-6.62-5.34-1.84-1.83-3.5-3.84-4.95-6-1.58-2.32-2.83-4.85-3.72-7.52-1.02-3.13-.17-6.57,2.17-8.88l1.93-1.93c.54-.54,1.41-.54,1.95,0,0,0,0,0,0,0l6.11,6.11c.54,.54,.54,1.41,0,1.95h0s-3.59,3.59-3.59,3.59c-1.03,1.02-1.16,2.64-.3,3.8,1.3,1.78,2.73,3.46,4.29,5.01,1.74,1.75,3.63,3.34,5.65,4.75,1.17,.81,2.75,.68,3.76-.33l3.47-3.52c.54-.54,1.41-.54,1.95,0h0s6.12,6.13,6.12,6.13c.54,.54,.54,1.41,0,1.95Z"/>
</svg>