<?xml version="1.0" encoding="UTF-8"?>
<svg id="Layer_1" data-name="Layer 1" xmlns="http://www.w3.org/2000/svg" viewBox="0 0 465.13 80.06">
  <defs>
    <style>
      .cls-1 {
        fill: #18e98d;
        stroke-width: 0px;
      }

      .cls-2 {
        isolation: isolate;
      }
    </style>
  </defs>
  <g class="cls-2">
    <g class="cls-2">
      <path class="cls-1" d="M107.21,80.06c-6.31,0-10.86-1.78-13.67-5.36-2.81-3.57-4.22-8.55-4.22-14.93V18.52h21.31v37.49c0,.99.13,1.92.4,2.79.27.87.63,1.63,1.08,2.28.46.65,1.06,1.12,1.82,1.42.76.3,1.6.46,2.51.46,1.67,0,3.06-.44,4.16-1.31,1.1-.87,1.94-2.03,2.51-3.48.57-1.44.85-3,.85-4.67V18.52h21.31v60.17h-17.89l-1.14-8.32h-.68c-1.22,2.05-2.77,3.82-4.67,5.3-1.9,1.48-3.99,2.58-6.27,3.3-2.28.72-4.75,1.08-7.41,1.08Z"/>
      <path class="cls-1" d="M185.38,80.06c-6.53,0-12.1-1.1-16.69-3.3-4.6-2.2-8.09-5.6-10.48-10.2-2.39-4.6-3.59-10.58-3.59-17.95s1.23-13.26,3.7-17.89c2.47-4.63,5.94-8.05,10.43-10.26,4.48-2.2,9.8-3.3,15.95-3.3,6.53,0,12.02,1.06,16.47,3.19,4.44,2.13,7.81,5.49,10.08,10.08,2.28,4.6,3.42,10.65,3.42,18.17v3.53h-38.63c0,2.96.3,5.47.91,7.52.61,2.05,1.58,3.59,2.91,4.61,1.33,1.03,3.13,1.54,5.41,1.54,1.6,0,2.94-.21,4.05-.63,1.1-.42,1.97-1.03,2.62-1.82.64-.8,1.1-1.75,1.37-2.85.27-1.1.4-2.34.4-3.7h20.85c0,3.72-.61,7.05-1.82,9.97-1.22,2.93-3.04,5.36-5.47,7.29-2.43,1.94-5.47,3.42-9.12,4.44-3.65,1.03-7.9,1.54-12.76,1.54ZM176.15,42.11h16.86c0-1.82-.17-3.42-.51-4.79-.34-1.37-.84-2.49-1.48-3.36-.65-.87-1.44-1.52-2.39-1.94-.95-.42-2.11-.63-3.48-.63-1.98,0-3.59.4-4.84,1.2s-2.2,1.98-2.85,3.53c-.65,1.56-1.08,3.55-1.31,5.98Z"/>
      <path class="cls-1" d="M241.56,80.06c-6.31,0-10.86-1.78-13.67-5.36-2.81-3.57-4.22-8.55-4.22-14.93V18.52h21.31v37.49c0,.99.13,1.92.4,2.79.27.87.63,1.63,1.08,2.28.46.65,1.06,1.12,1.82,1.42.76.3,1.59.46,2.51.46,1.67,0,3.06-.44,4.16-1.31,1.1-.87,1.94-2.03,2.51-3.48.57-1.44.85-3,.85-4.67V18.52h21.31v60.17h-17.89l-1.14-8.32h-.68c-1.22,2.05-2.77,3.82-4.67,5.3-1.9,1.48-3.99,2.58-6.27,3.3-2.28.72-4.75,1.08-7.41,1.08Z"/>
      <path class="cls-1" d="M319.73,80.06c-6.53,0-12.1-1.1-16.69-3.3-4.6-2.2-8.09-5.6-10.48-10.2-2.39-4.6-3.59-10.58-3.59-17.95s1.23-13.26,3.7-17.89c2.47-4.63,5.94-8.05,10.43-10.26,4.48-2.2,9.8-3.3,15.95-3.3,6.53,0,12.02,1.06,16.47,3.19,4.44,2.13,7.81,5.49,10.08,10.08,2.28,4.6,3.42,10.65,3.42,18.17v3.53h-38.63c0,2.96.3,5.47.91,7.52.61,2.05,1.58,3.59,2.91,4.61,1.33,1.03,3.13,1.54,5.41,1.54,1.6,0,2.94-.21,4.05-.63,1.1-.42,1.97-1.03,2.62-1.82.64-.8,1.1-1.75,1.37-2.85.27-1.1.4-2.34.4-3.7h20.85c0,3.72-.61,7.05-1.82,9.97-1.22,2.93-3.04,5.36-5.47,7.29-2.43,1.94-5.47,3.42-9.12,4.44-3.65,1.03-7.9,1.54-12.76,1.54ZM310.5,42.11h16.87c0-1.82-.17-3.42-.51-4.79-.34-1.37-.84-2.49-1.48-3.36-.65-.87-1.44-1.52-2.39-1.94-.95-.42-2.11-.63-3.47-.63-1.98,0-3.59.4-4.84,1.2-1.25.8-2.2,1.98-2.85,3.53-.65,1.56-1.08,3.55-1.31,5.98Z"/>
      <path class="cls-1" d="M395.39,78.69V.29h42.28c5.85,0,10.62,1.14,14.3,3.42,3.68,2.28,6.42,5.3,8.2,9.06,1.78,3.76,2.68,7.84,2.68,12.25,0,4.71-.93,8.96-2.79,12.76-1.86,3.8-4.58,6.95-8.15,9.46l13.22,31.45h-26.09l-9.8-26.32h-10.14v26.32h-23.7ZM419.09,35.27h13.45c1.9,0,3.42-.85,4.56-2.56,1.14-1.71,1.71-3.82,1.71-6.32,0-1.6-.25-3.02-.74-4.27-.5-1.25-1.22-2.26-2.17-3.02-.95-.76-2.07-1.14-3.36-1.14h-13.45v17.32Z"/>
    </g>
  </g>
  <g>
    <rect class="cls-1" x="22.63" y=".08" width="11.82" height="11.82"/>
    <rect class="cls-1" x="11.18" y="11.9" width="11.45" height="11.45"/>
    <rect class="cls-1" x="4.04" y="4.76" width="7.13" height="7.13"/>
    <rect class="cls-1" x="4.04" y="23.35" width="7.13" height="7.13"/>
    <rect class="cls-1" x="11.18" width="4.76" height="4.76"/>
    <rect class="cls-1" y=".72" width="4.05" height="4.05"/>
    <rect class="cls-1" y="19.3" width="4.05" height="4.05"/>
    <path class="cls-1" d="M72.99,68.98l-1.43-5.22c5.15-6.68,8.24-15.08,8.24-24.22C79.8,17.8,62.41.18,40.96.18c-1.29,0-2.56.07-3.81.19v23.6c1.22-.31,2.5-.47,3.81-.47,8.74,0,15.82,7.18,15.82,16.04,0,2.93-.78,5.68-2.14,8.05l2.32,8.46-7.13-3.23c-2.53,1.74-5.59,2.76-8.88,2.76-8.74,0-15.82-7.18-15.82-16.04,0-2.93.78-5.67,2.13-8.04H2.95c-.53,2.6-.81,5.28-.81,8.04,0,21.74,17.39,39.36,38.84,39.36,7.73,0,14.93-2.3,20.98-6.24l4.39,1.99,8.84,4.01.44.24v-.05l.09.05-2.71-9.92h-.02Z"/>
  </g>
</svg>